<mxfile host="app.diagrams.net" modified="2023-03-31T06:51:32.077Z" agent="Mozilla/5.0 (Windows NT 10.0; Win64; x64) AppleWebKit/537.36 (KHTML, like Gecko) Chrome/111.0.0.0 Safari/537.36" etag="9l_DmXWlUj93hHEk7iQ6" version="21.1.2" type="github">
  <diagram id="R2lEEEUBdFMjLlhIrx00" name="Page-1">
    <mxGraphModel dx="2072" dy="789" grid="1" gridSize="10" guides="1" tooltips="1" connect="1" arrows="1" fold="1" page="1" pageScale="1" pageWidth="850" pageHeight="1100" math="0" shadow="0" extFonts="Permanent Marker^https://fonts.googleapis.com/css?family=Permanent+Marker">
      <root>
        <mxCell id="0" />
        <mxCell id="1" parent="0" />
        <mxCell id="8jSIoz8-svRz9orV7-6B-16" style="edgeStyle=orthogonalEdgeStyle;rounded=0;orthogonalLoop=1;jettySize=auto;html=1;" edge="1" parent="1" source="8jSIoz8-svRz9orV7-6B-1" target="8jSIoz8-svRz9orV7-6B-9">
          <mxGeometry relative="1" as="geometry" />
        </mxCell>
        <mxCell id="8jSIoz8-svRz9orV7-6B-17" style="edgeStyle=orthogonalEdgeStyle;rounded=0;orthogonalLoop=1;jettySize=auto;html=1;" edge="1" parent="1" source="8jSIoz8-svRz9orV7-6B-1" target="8jSIoz8-svRz9orV7-6B-10">
          <mxGeometry relative="1" as="geometry" />
        </mxCell>
        <mxCell id="8jSIoz8-svRz9orV7-6B-22" style="edgeStyle=orthogonalEdgeStyle;rounded=0;orthogonalLoop=1;jettySize=auto;html=1;entryX=0.5;entryY=0;entryDx=0;entryDy=0;" edge="1" parent="1" source="8jSIoz8-svRz9orV7-6B-1" target="8jSIoz8-svRz9orV7-6B-13">
          <mxGeometry relative="1" as="geometry" />
        </mxCell>
        <mxCell id="8jSIoz8-svRz9orV7-6B-23" style="edgeStyle=orthogonalEdgeStyle;rounded=0;orthogonalLoop=1;jettySize=auto;html=1;" edge="1" parent="1" source="8jSIoz8-svRz9orV7-6B-1" target="8jSIoz8-svRz9orV7-6B-11">
          <mxGeometry relative="1" as="geometry">
            <mxPoint x="210" y="340" as="targetPoint" />
          </mxGeometry>
        </mxCell>
        <mxCell id="8jSIoz8-svRz9orV7-6B-24" style="edgeStyle=orthogonalEdgeStyle;rounded=0;orthogonalLoop=1;jettySize=auto;html=1;" edge="1" parent="1" source="8jSIoz8-svRz9orV7-6B-1" target="8jSIoz8-svRz9orV7-6B-7">
          <mxGeometry relative="1" as="geometry" />
        </mxCell>
        <mxCell id="8jSIoz8-svRz9orV7-6B-99" style="edgeStyle=orthogonalEdgeStyle;rounded=0;orthogonalLoop=1;jettySize=auto;html=1;entryX=1;entryY=0.5;entryDx=0;entryDy=0;" edge="1" parent="1" source="8jSIoz8-svRz9orV7-6B-1" target="8jSIoz8-svRz9orV7-6B-15">
          <mxGeometry relative="1" as="geometry" />
        </mxCell>
        <mxCell id="8jSIoz8-svRz9orV7-6B-100" style="edgeStyle=orthogonalEdgeStyle;rounded=0;orthogonalLoop=1;jettySize=auto;html=1;entryX=1;entryY=0.5;entryDx=0;entryDy=0;" edge="1" parent="1" source="8jSIoz8-svRz9orV7-6B-1" target="8jSIoz8-svRz9orV7-6B-14">
          <mxGeometry relative="1" as="geometry" />
        </mxCell>
        <mxCell id="8jSIoz8-svRz9orV7-6B-101" style="edgeStyle=orthogonalEdgeStyle;rounded=0;orthogonalLoop=1;jettySize=auto;html=1;entryX=1;entryY=0.5;entryDx=0;entryDy=0;strokeColor=#FF3333;exitX=0;exitY=0.25;exitDx=0;exitDy=0;" edge="1" parent="1" source="8jSIoz8-svRz9orV7-6B-1" target="8jSIoz8-svRz9orV7-6B-5">
          <mxGeometry relative="1" as="geometry">
            <Array as="points">
              <mxPoint x="10" y="250" />
              <mxPoint x="10" y="180" />
            </Array>
          </mxGeometry>
        </mxCell>
        <mxCell id="8jSIoz8-svRz9orV7-6B-102" style="edgeStyle=orthogonalEdgeStyle;rounded=0;orthogonalLoop=1;jettySize=auto;html=1;entryX=1;entryY=0.5;entryDx=0;entryDy=0;exitX=0;exitY=0.75;exitDx=0;exitDy=0;" edge="1" parent="1" source="8jSIoz8-svRz9orV7-6B-1" target="8jSIoz8-svRz9orV7-6B-12">
          <mxGeometry relative="1" as="geometry">
            <Array as="points">
              <mxPoint x="10" y="270" />
              <mxPoint x="10" y="330" />
            </Array>
          </mxGeometry>
        </mxCell>
        <mxCell id="8jSIoz8-svRz9orV7-6B-105" style="edgeStyle=orthogonalEdgeStyle;rounded=0;orthogonalLoop=1;jettySize=auto;html=1;entryX=0.5;entryY=0;entryDx=0;entryDy=0;strokeColor=#0000FF;endArrow=none;endFill=0;startArrow=ERone;startFill=0;" edge="1" parent="1" source="8jSIoz8-svRz9orV7-6B-1" target="8jSIoz8-svRz9orV7-6B-103">
          <mxGeometry relative="1" as="geometry" />
        </mxCell>
        <mxCell id="8jSIoz8-svRz9orV7-6B-1" value="User" style="rounded=1;arcSize=10;whiteSpace=wrap;html=1;align=center;strokeColor=#006600;fontColor=#336600;" vertex="1" parent="1">
          <mxGeometry x="30" y="240" width="100" height="40" as="geometry" />
        </mxCell>
        <mxCell id="8jSIoz8-svRz9orV7-6B-91" style="edgeStyle=orthogonalEdgeStyle;rounded=0;orthogonalLoop=1;jettySize=auto;html=1;entryX=1;entryY=0.5;entryDx=0;entryDy=0;exitX=0;exitY=0.25;exitDx=0;exitDy=0;" edge="1" parent="1" source="8jSIoz8-svRz9orV7-6B-2" target="8jSIoz8-svRz9orV7-6B-87">
          <mxGeometry relative="1" as="geometry">
            <Array as="points">
              <mxPoint x="10" y="610" />
              <mxPoint x="10" y="550" />
            </Array>
          </mxGeometry>
        </mxCell>
        <mxCell id="8jSIoz8-svRz9orV7-6B-92" style="edgeStyle=orthogonalEdgeStyle;rounded=0;orthogonalLoop=1;jettySize=auto;html=1;entryX=1;entryY=0.5;entryDx=0;entryDy=0;" edge="1" parent="1" source="8jSIoz8-svRz9orV7-6B-2" target="8jSIoz8-svRz9orV7-6B-90">
          <mxGeometry relative="1" as="geometry" />
        </mxCell>
        <mxCell id="8jSIoz8-svRz9orV7-6B-93" style="edgeStyle=orthogonalEdgeStyle;rounded=0;orthogonalLoop=1;jettySize=auto;html=1;entryX=1;entryY=0.5;entryDx=0;entryDy=0;" edge="1" parent="1" source="8jSIoz8-svRz9orV7-6B-2" target="8jSIoz8-svRz9orV7-6B-86">
          <mxGeometry relative="1" as="geometry" />
        </mxCell>
        <mxCell id="8jSIoz8-svRz9orV7-6B-94" style="edgeStyle=orthogonalEdgeStyle;rounded=0;orthogonalLoop=1;jettySize=auto;html=1;entryX=1;entryY=0.5;entryDx=0;entryDy=0;exitX=0;exitY=0.75;exitDx=0;exitDy=0;" edge="1" parent="1" source="8jSIoz8-svRz9orV7-6B-2" target="8jSIoz8-svRz9orV7-6B-85">
          <mxGeometry relative="1" as="geometry">
            <Array as="points">
              <mxPoint x="10" y="630" />
              <mxPoint x="10" y="700" />
            </Array>
          </mxGeometry>
        </mxCell>
        <mxCell id="8jSIoz8-svRz9orV7-6B-95" style="edgeStyle=orthogonalEdgeStyle;rounded=0;orthogonalLoop=1;jettySize=auto;html=1;entryX=0.5;entryY=0;entryDx=0;entryDy=0;" edge="1" parent="1" source="8jSIoz8-svRz9orV7-6B-2" target="8jSIoz8-svRz9orV7-6B-84">
          <mxGeometry relative="1" as="geometry" />
        </mxCell>
        <mxCell id="8jSIoz8-svRz9orV7-6B-96" style="edgeStyle=orthogonalEdgeStyle;rounded=0;orthogonalLoop=1;jettySize=auto;html=1;exitX=0.25;exitY=1;exitDx=0;exitDy=0;" edge="1" parent="1" source="8jSIoz8-svRz9orV7-6B-2" target="8jSIoz8-svRz9orV7-6B-89">
          <mxGeometry relative="1" as="geometry" />
        </mxCell>
        <mxCell id="8jSIoz8-svRz9orV7-6B-97" style="edgeStyle=orthogonalEdgeStyle;rounded=0;orthogonalLoop=1;jettySize=auto;html=1;entryX=0;entryY=0.5;entryDx=0;entryDy=0;strokeColor=#FF3333;" edge="1" parent="1" target="8jSIoz8-svRz9orV7-6B-82">
          <mxGeometry relative="1" as="geometry">
            <mxPoint x="120" y="610" as="sourcePoint" />
          </mxGeometry>
        </mxCell>
        <mxCell id="8jSIoz8-svRz9orV7-6B-98" style="edgeStyle=orthogonalEdgeStyle;rounded=0;orthogonalLoop=1;jettySize=auto;html=1;entryX=0;entryY=0.5;entryDx=0;entryDy=0;" edge="1" parent="1" target="8jSIoz8-svRz9orV7-6B-83">
          <mxGeometry relative="1" as="geometry">
            <mxPoint x="120" y="630" as="sourcePoint" />
          </mxGeometry>
        </mxCell>
        <mxCell id="8jSIoz8-svRz9orV7-6B-107" style="edgeStyle=orthogonalEdgeStyle;rounded=0;orthogonalLoop=1;jettySize=auto;html=1;entryX=0.5;entryY=1;entryDx=0;entryDy=0;strokeColor=#0000FF;" edge="1" parent="1" source="8jSIoz8-svRz9orV7-6B-2" target="8jSIoz8-svRz9orV7-6B-106">
          <mxGeometry relative="1" as="geometry" />
        </mxCell>
        <mxCell id="8jSIoz8-svRz9orV7-6B-115" style="edgeStyle=orthogonalEdgeStyle;rounded=0;orthogonalLoop=1;jettySize=auto;html=1;exitX=0.75;exitY=0;exitDx=0;exitDy=0;entryX=0;entryY=0.5;entryDx=0;entryDy=0;strokeColor=#0000FF;endArrow=none;endFill=0;startArrow=ERone;startFill=0;" edge="1" parent="1" source="8jSIoz8-svRz9orV7-6B-2" target="8jSIoz8-svRz9orV7-6B-113">
          <mxGeometry relative="1" as="geometry" />
        </mxCell>
        <mxCell id="8jSIoz8-svRz9orV7-6B-2" value="Channel" style="rounded=1;arcSize=10;whiteSpace=wrap;html=1;align=center;strokeColor=#006600;fontColor=#336600;" vertex="1" parent="1">
          <mxGeometry x="30" y="600" width="100" height="40" as="geometry" />
        </mxCell>
        <mxCell id="8jSIoz8-svRz9orV7-6B-74" style="edgeStyle=orthogonalEdgeStyle;rounded=0;orthogonalLoop=1;jettySize=auto;html=1;entryX=0.5;entryY=0;entryDx=0;entryDy=0;" edge="1" parent="1" source="8jSIoz8-svRz9orV7-6B-3" target="8jSIoz8-svRz9orV7-6B-71">
          <mxGeometry relative="1" as="geometry" />
        </mxCell>
        <mxCell id="8jSIoz8-svRz9orV7-6B-75" style="edgeStyle=orthogonalEdgeStyle;rounded=0;orthogonalLoop=1;jettySize=auto;html=1;entryX=0;entryY=0.5;entryDx=0;entryDy=0;exitX=0.75;exitY=1;exitDx=0;exitDy=0;" edge="1" parent="1" source="8jSIoz8-svRz9orV7-6B-3" target="8jSIoz8-svRz9orV7-6B-70">
          <mxGeometry relative="1" as="geometry" />
        </mxCell>
        <mxCell id="8jSIoz8-svRz9orV7-6B-76" style="edgeStyle=orthogonalEdgeStyle;rounded=0;orthogonalLoop=1;jettySize=auto;html=1;entryX=1;entryY=0.5;entryDx=0;entryDy=0;exitX=0.25;exitY=1;exitDx=0;exitDy=0;" edge="1" parent="1" source="8jSIoz8-svRz9orV7-6B-3" target="8jSIoz8-svRz9orV7-6B-72">
          <mxGeometry relative="1" as="geometry" />
        </mxCell>
        <mxCell id="8jSIoz8-svRz9orV7-6B-77" style="edgeStyle=orthogonalEdgeStyle;rounded=0;orthogonalLoop=1;jettySize=auto;html=1;entryX=0;entryY=0.5;entryDx=0;entryDy=0;" edge="1" parent="1" source="8jSIoz8-svRz9orV7-6B-3" target="8jSIoz8-svRz9orV7-6B-69">
          <mxGeometry relative="1" as="geometry" />
        </mxCell>
        <mxCell id="8jSIoz8-svRz9orV7-6B-78" style="edgeStyle=orthogonalEdgeStyle;rounded=0;orthogonalLoop=1;jettySize=auto;html=1;strokeColor=#FF3333;" edge="1" parent="1" source="8jSIoz8-svRz9orV7-6B-3" target="8jSIoz8-svRz9orV7-6B-68">
          <mxGeometry relative="1" as="geometry" />
        </mxCell>
        <mxCell id="8jSIoz8-svRz9orV7-6B-80" style="edgeStyle=orthogonalEdgeStyle;rounded=0;orthogonalLoop=1;jettySize=auto;html=1;entryX=0.5;entryY=1;entryDx=0;entryDy=0;strokeColor=#0000FF;endArrow=none;endFill=0;" edge="1" parent="1" source="8jSIoz8-svRz9orV7-6B-3" target="8jSIoz8-svRz9orV7-6B-79">
          <mxGeometry relative="1" as="geometry" />
        </mxCell>
        <mxCell id="8jSIoz8-svRz9orV7-6B-3" value="Playlist" style="rounded=1;arcSize=10;whiteSpace=wrap;html=1;align=center;strokeColor=#006600;fontColor=#336600;" vertex="1" parent="1">
          <mxGeometry x="550" y="600" width="100" height="40" as="geometry" />
        </mxCell>
        <mxCell id="8jSIoz8-svRz9orV7-6B-57" style="edgeStyle=orthogonalEdgeStyle;rounded=0;orthogonalLoop=1;jettySize=auto;html=1;" edge="1" parent="1" source="8jSIoz8-svRz9orV7-6B-4" target="8jSIoz8-svRz9orV7-6B-47">
          <mxGeometry relative="1" as="geometry" />
        </mxCell>
        <mxCell id="8jSIoz8-svRz9orV7-6B-58" style="edgeStyle=orthogonalEdgeStyle;rounded=0;orthogonalLoop=1;jettySize=auto;html=1;" edge="1" parent="1" source="8jSIoz8-svRz9orV7-6B-4" target="8jSIoz8-svRz9orV7-6B-52">
          <mxGeometry relative="1" as="geometry" />
        </mxCell>
        <mxCell id="8jSIoz8-svRz9orV7-6B-60" style="edgeStyle=orthogonalEdgeStyle;rounded=0;orthogonalLoop=1;jettySize=auto;html=1;exitX=0.75;exitY=1;exitDx=0;exitDy=0;" edge="1" parent="1" source="8jSIoz8-svRz9orV7-6B-4" target="8jSIoz8-svRz9orV7-6B-53">
          <mxGeometry relative="1" as="geometry" />
        </mxCell>
        <mxCell id="8jSIoz8-svRz9orV7-6B-61" style="edgeStyle=orthogonalEdgeStyle;rounded=0;orthogonalLoop=1;jettySize=auto;html=1;exitX=0.25;exitY=1;exitDx=0;exitDy=0;" edge="1" parent="1" source="8jSIoz8-svRz9orV7-6B-4" target="8jSIoz8-svRz9orV7-6B-50">
          <mxGeometry relative="1" as="geometry" />
        </mxCell>
        <mxCell id="8jSIoz8-svRz9orV7-6B-62" style="edgeStyle=orthogonalEdgeStyle;rounded=0;orthogonalLoop=1;jettySize=auto;html=1;" edge="1" parent="1" source="8jSIoz8-svRz9orV7-6B-4" target="8jSIoz8-svRz9orV7-6B-48">
          <mxGeometry relative="1" as="geometry" />
        </mxCell>
        <mxCell id="8jSIoz8-svRz9orV7-6B-63" style="edgeStyle=orthogonalEdgeStyle;rounded=0;orthogonalLoop=1;jettySize=auto;html=1;" edge="1" parent="1" source="8jSIoz8-svRz9orV7-6B-4" target="8jSIoz8-svRz9orV7-6B-44">
          <mxGeometry relative="1" as="geometry" />
        </mxCell>
        <mxCell id="8jSIoz8-svRz9orV7-6B-64" style="edgeStyle=orthogonalEdgeStyle;rounded=0;orthogonalLoop=1;jettySize=auto;html=1;exitX=0.25;exitY=0;exitDx=0;exitDy=0;" edge="1" parent="1" source="8jSIoz8-svRz9orV7-6B-4" target="8jSIoz8-svRz9orV7-6B-51">
          <mxGeometry relative="1" as="geometry" />
        </mxCell>
        <mxCell id="8jSIoz8-svRz9orV7-6B-65" style="edgeStyle=orthogonalEdgeStyle;rounded=0;orthogonalLoop=1;jettySize=auto;html=1;strokeColor=#FF3333;exitX=0;exitY=0.25;exitDx=0;exitDy=0;" edge="1" parent="1" source="8jSIoz8-svRz9orV7-6B-4" target="8jSIoz8-svRz9orV7-6B-45">
          <mxGeometry relative="1" as="geometry" />
        </mxCell>
        <mxCell id="8jSIoz8-svRz9orV7-6B-66" style="edgeStyle=orthogonalEdgeStyle;rounded=0;orthogonalLoop=1;jettySize=auto;html=1;entryX=0;entryY=0.5;entryDx=0;entryDy=0;exitX=1;exitY=0.25;exitDx=0;exitDy=0;" edge="1" parent="1" source="8jSIoz8-svRz9orV7-6B-4" target="8jSIoz8-svRz9orV7-6B-46">
          <mxGeometry relative="1" as="geometry">
            <Array as="points">
              <mxPoint x="670" y="250" />
              <mxPoint x="670" y="180" />
            </Array>
          </mxGeometry>
        </mxCell>
        <mxCell id="8jSIoz8-svRz9orV7-6B-67" style="edgeStyle=orthogonalEdgeStyle;rounded=0;orthogonalLoop=1;jettySize=auto;html=1;entryX=0;entryY=0.5;entryDx=0;entryDy=0;" edge="1" parent="1" target="8jSIoz8-svRz9orV7-6B-49">
          <mxGeometry relative="1" as="geometry">
            <mxPoint x="650" y="270" as="sourcePoint" />
            <Array as="points">
              <mxPoint x="670" y="270" />
              <mxPoint x="670" y="340" />
            </Array>
          </mxGeometry>
        </mxCell>
        <mxCell id="8jSIoz8-svRz9orV7-6B-4" value="Video" style="rounded=1;arcSize=10;whiteSpace=wrap;html=1;align=center;strokeColor=#006600;fontColor=#336600;" vertex="1" parent="1">
          <mxGeometry x="550" y="240" width="100" height="40" as="geometry" />
        </mxCell>
        <mxCell id="8jSIoz8-svRz9orV7-6B-5" value="userId" style="ellipse;whiteSpace=wrap;html=1;align=center;fontStyle=4;strokeColor=#FF3333;fontColor=#ff0000;" vertex="1" parent="1">
          <mxGeometry x="-130" y="160" width="100" height="40" as="geometry" />
        </mxCell>
        <mxCell id="8jSIoz8-svRz9orV7-6B-7" value="dislikedVideos" style="ellipse;whiteSpace=wrap;html=1;align=center;" vertex="1" parent="1">
          <mxGeometry x="90" y="130" width="100" height="40" as="geometry" />
        </mxCell>
        <mxCell id="8jSIoz8-svRz9orV7-6B-9" value="likedVideos" style="ellipse;whiteSpace=wrap;html=1;align=center;" vertex="1" parent="1">
          <mxGeometry x="-30" y="130" width="100" height="40" as="geometry" />
        </mxCell>
        <mxCell id="8jSIoz8-svRz9orV7-6B-10" value="videoHistory" style="ellipse;whiteSpace=wrap;html=1;align=center;" vertex="1" parent="1">
          <mxGeometry x="90" y="340" width="100" height="40" as="geometry" />
        </mxCell>
        <mxCell id="8jSIoz8-svRz9orV7-6B-11" value="subscribedChannels" style="ellipse;whiteSpace=wrap;html=1;align=center;" vertex="1" parent="1">
          <mxGeometry x="20" y="70" width="120" height="50" as="geometry" />
        </mxCell>
        <mxCell id="8jSIoz8-svRz9orV7-6B-12" value="email" style="ellipse;whiteSpace=wrap;html=1;align=center;" vertex="1" parent="1">
          <mxGeometry x="-130" y="310" width="100" height="40" as="geometry" />
        </mxCell>
        <mxCell id="8jSIoz8-svRz9orV7-6B-13" value="fullName" style="ellipse;whiteSpace=wrap;html=1;align=center;" vertex="1" parent="1">
          <mxGeometry x="-30" y="340" width="100" height="40" as="geometry" />
        </mxCell>
        <mxCell id="8jSIoz8-svRz9orV7-6B-14" value="lastName" style="ellipse;whiteSpace=wrap;html=1;align=center;" vertex="1" parent="1">
          <mxGeometry x="-130" y="260" width="100" height="40" as="geometry" />
        </mxCell>
        <mxCell id="8jSIoz8-svRz9orV7-6B-15" value="firstName" style="ellipse;whiteSpace=wrap;html=1;align=center;" vertex="1" parent="1">
          <mxGeometry x="-130" y="210" width="100" height="40" as="geometry" />
        </mxCell>
        <mxCell id="8jSIoz8-svRz9orV7-6B-44" value="title" style="ellipse;whiteSpace=wrap;html=1;align=center;" vertex="1" parent="1">
          <mxGeometry x="600" y="130" width="100" height="40" as="geometry" />
        </mxCell>
        <mxCell id="8jSIoz8-svRz9orV7-6B-45" value="videoId" style="ellipse;whiteSpace=wrap;html=1;align=center;fontStyle=4;strokeColor=#FF3333;fontColor=#ff0000;" vertex="1" parent="1">
          <mxGeometry x="425" y="180" width="100" height="40" as="geometry" />
        </mxCell>
        <mxCell id="8jSIoz8-svRz9orV7-6B-46" value="userId" style="ellipse;whiteSpace=wrap;html=1;align=center;" vertex="1" parent="1">
          <mxGeometry x="700" y="160" width="100" height="40" as="geometry" />
        </mxCell>
        <mxCell id="8jSIoz8-svRz9orV7-6B-47" value="liked" style="ellipse;whiteSpace=wrap;html=1;align=center;" vertex="1" parent="1">
          <mxGeometry x="700" y="220" width="100" height="40" as="geometry" />
        </mxCell>
        <mxCell id="8jSIoz8-svRz9orV7-6B-48" value="dislikes" style="ellipse;whiteSpace=wrap;html=1;align=center;" vertex="1" parent="1">
          <mxGeometry x="425" y="300" width="100" height="40" as="geometry" />
        </mxCell>
        <mxCell id="8jSIoz8-svRz9orV7-6B-49" value="tags" style="ellipse;whiteSpace=wrap;html=1;align=center;" vertex="1" parent="1">
          <mxGeometry x="700" y="320" width="100" height="40" as="geometry" />
        </mxCell>
        <mxCell id="8jSIoz8-svRz9orV7-6B-50" value="videoUrl" style="ellipse;whiteSpace=wrap;html=1;align=center;" vertex="1" parent="1">
          <mxGeometry x="490" y="350" width="100" height="40" as="geometry" />
        </mxCell>
        <mxCell id="8jSIoz8-svRz9orV7-6B-51" value="description" style="ellipse;whiteSpace=wrap;html=1;align=center;" vertex="1" parent="1">
          <mxGeometry x="490" y="130" width="100" height="40" as="geometry" />
        </mxCell>
        <mxCell id="8jSIoz8-svRz9orV7-6B-52" value="thumbnailUrl" style="ellipse;whiteSpace=wrap;html=1;align=center;" vertex="1" parent="1">
          <mxGeometry x="700" y="270" width="100" height="40" as="geometry" />
        </mxCell>
        <mxCell id="8jSIoz8-svRz9orV7-6B-53" value="CommentList" style="ellipse;whiteSpace=wrap;html=1;align=center;" vertex="1" parent="1">
          <mxGeometry x="610" y="350" width="100" height="40" as="geometry" />
        </mxCell>
        <mxCell id="8jSIoz8-svRz9orV7-6B-68" value="playlistId" style="ellipse;whiteSpace=wrap;html=1;align=center;fontStyle=4;strokeColor=#FF3333;fontColor=#ff0000;" vertex="1" parent="1">
          <mxGeometry x="417.5" y="600" width="100" height="40" as="geometry" />
        </mxCell>
        <mxCell id="8jSIoz8-svRz9orV7-6B-69" value="playlistName" style="ellipse;whiteSpace=wrap;html=1;align=center;" vertex="1" parent="1">
          <mxGeometry x="682.5" y="600" width="100" height="40" as="geometry" />
        </mxCell>
        <mxCell id="8jSIoz8-svRz9orV7-6B-70" value="userId" style="ellipse;whiteSpace=wrap;html=1;align=center;" vertex="1" parent="1">
          <mxGeometry x="650" y="670" width="100" height="40" as="geometry" />
        </mxCell>
        <mxCell id="8jSIoz8-svRz9orV7-6B-71" value="videoUrl" style="ellipse;whiteSpace=wrap;html=1;align=center;" vertex="1" parent="1">
          <mxGeometry x="550" y="710" width="100" height="40" as="geometry" />
        </mxCell>
        <mxCell id="8jSIoz8-svRz9orV7-6B-72" value="videoList" style="ellipse;whiteSpace=wrap;html=1;align=center;" vertex="1" parent="1">
          <mxGeometry x="450" y="670" width="100" height="40" as="geometry" />
        </mxCell>
        <mxCell id="8jSIoz8-svRz9orV7-6B-81" style="edgeStyle=orthogonalEdgeStyle;rounded=0;orthogonalLoop=1;jettySize=auto;html=1;exitX=0.5;exitY=0;exitDx=0;exitDy=0;entryX=0.5;entryY=1;entryDx=0;entryDy=0;strokeColor=#0000FF;endArrow=ERmany;endFill=0;" edge="1" parent="1" source="8jSIoz8-svRz9orV7-6B-79" target="8jSIoz8-svRz9orV7-6B-4">
          <mxGeometry relative="1" as="geometry" />
        </mxCell>
        <mxCell id="8jSIoz8-svRz9orV7-6B-79" value="CONTAINS" style="shape=rhombus;perimeter=rhombusPerimeter;whiteSpace=wrap;html=1;align=center;fontColor=#001eff;strokeColor=#3333FF;" vertex="1" parent="1">
          <mxGeometry x="540" y="450" width="120" height="60" as="geometry" />
        </mxCell>
        <mxCell id="8jSIoz8-svRz9orV7-6B-82" value="channelId" style="ellipse;whiteSpace=wrap;html=1;align=center;fontStyle=4;strokeColor=#FF3333;fontColor=#ff0000;" vertex="1" parent="1">
          <mxGeometry x="170" y="560" width="100" height="40" as="geometry" />
        </mxCell>
        <mxCell id="8jSIoz8-svRz9orV7-6B-83" value="userId" style="ellipse;whiteSpace=wrap;html=1;align=center;" vertex="1" parent="1">
          <mxGeometry x="170" y="640" width="100" height="40" as="geometry" />
        </mxCell>
        <mxCell id="8jSIoz8-svRz9orV7-6B-84" value="description" style="ellipse;whiteSpace=wrap;html=1;align=center;" vertex="1" parent="1">
          <mxGeometry x="90" y="710" width="100" height="40" as="geometry" />
        </mxCell>
        <mxCell id="8jSIoz8-svRz9orV7-6B-85" value="profilePicUrl" style="ellipse;whiteSpace=wrap;html=1;align=center;" vertex="1" parent="1">
          <mxGeometry x="-130" y="680" width="100" height="40" as="geometry" />
        </mxCell>
        <mxCell id="8jSIoz8-svRz9orV7-6B-86" value="bannerPicUrl" style="ellipse;whiteSpace=wrap;html=1;align=center;" vertex="1" parent="1">
          <mxGeometry x="-130" y="630" width="100" height="40" as="geometry" />
        </mxCell>
        <mxCell id="8jSIoz8-svRz9orV7-6B-87" value="featuredChannel" style="ellipse;whiteSpace=wrap;html=1;align=center;" vertex="1" parent="1">
          <mxGeometry x="-130" y="530" width="100" height="40" as="geometry" />
        </mxCell>
        <mxCell id="8jSIoz8-svRz9orV7-6B-89" value="subscribers" style="ellipse;whiteSpace=wrap;html=1;align=center;" vertex="1" parent="1">
          <mxGeometry x="-20" y="710" width="100" height="40" as="geometry" />
        </mxCell>
        <mxCell id="8jSIoz8-svRz9orV7-6B-90" value="myPlaylists" style="ellipse;whiteSpace=wrap;html=1;align=center;" vertex="1" parent="1">
          <mxGeometry x="-130" y="580" width="100" height="40" as="geometry" />
        </mxCell>
        <mxCell id="8jSIoz8-svRz9orV7-6B-104" style="edgeStyle=orthogonalEdgeStyle;rounded=0;orthogonalLoop=1;jettySize=auto;html=1;entryX=0.5;entryY=0;entryDx=0;entryDy=0;strokeColor=#0000FF;endArrow=ERone;endFill=0;" edge="1" parent="1" source="8jSIoz8-svRz9orV7-6B-103" target="8jSIoz8-svRz9orV7-6B-2">
          <mxGeometry relative="1" as="geometry" />
        </mxCell>
        <mxCell id="8jSIoz8-svRz9orV7-6B-103" value="CREATES" style="shape=rhombus;perimeter=rhombusPerimeter;whiteSpace=wrap;html=1;align=center;" vertex="1" parent="1">
          <mxGeometry x="20" y="430" width="120" height="60" as="geometry" />
        </mxCell>
        <mxCell id="8jSIoz8-svRz9orV7-6B-112" style="edgeStyle=orthogonalEdgeStyle;rounded=0;orthogonalLoop=1;jettySize=auto;html=1;exitX=0.5;exitY=0;exitDx=0;exitDy=0;entryX=0;entryY=0.75;entryDx=0;entryDy=0;strokeColor=#0000FF;endArrow=ERmany;endFill=0;" edge="1" parent="1" source="8jSIoz8-svRz9orV7-6B-106" target="8jSIoz8-svRz9orV7-6B-4">
          <mxGeometry relative="1" as="geometry" />
        </mxCell>
        <mxCell id="8jSIoz8-svRz9orV7-6B-106" value="UPLOADS" style="shape=rhombus;perimeter=rhombusPerimeter;whiteSpace=wrap;html=1;align=center;" vertex="1" parent="1">
          <mxGeometry x="210" y="400" width="120" height="60" as="geometry" />
        </mxCell>
        <mxCell id="8jSIoz8-svRz9orV7-6B-116" style="edgeStyle=orthogonalEdgeStyle;rounded=0;orthogonalLoop=1;jettySize=auto;html=1;exitX=1;exitY=0.5;exitDx=0;exitDy=0;strokeColor=#0000FF;endArrow=ERmany;endFill=0;" edge="1" parent="1" source="8jSIoz8-svRz9orV7-6B-113">
          <mxGeometry relative="1" as="geometry">
            <mxPoint x="560" y="600" as="targetPoint" />
            <Array as="points">
              <mxPoint x="560" y="500" />
              <mxPoint x="560" y="600" />
            </Array>
          </mxGeometry>
        </mxCell>
        <mxCell id="8jSIoz8-svRz9orV7-6B-113" value="CREATES" style="shape=rhombus;perimeter=rhombusPerimeter;whiteSpace=wrap;html=1;align=center;" vertex="1" parent="1">
          <mxGeometry x="340" y="470" width="120" height="60" as="geometry" />
        </mxCell>
        <mxCell id="8jSIoz8-svRz9orV7-6B-119" value="CREATES" style="shape=rhombus;perimeter=rhombusPerimeter;whiteSpace=wrap;html=1;align=center;fontColor=#001eff;strokeColor=#3333FF;" vertex="1" parent="1">
          <mxGeometry x="20" y="430" width="120" height="60" as="geometry" />
        </mxCell>
        <mxCell id="8jSIoz8-svRz9orV7-6B-120" value="UPLOADS" style="shape=rhombus;perimeter=rhombusPerimeter;whiteSpace=wrap;html=1;align=center;fontColor=#001eff;strokeColor=#3333FF;" vertex="1" parent="1">
          <mxGeometry x="210" y="400" width="120" height="60" as="geometry" />
        </mxCell>
        <mxCell id="8jSIoz8-svRz9orV7-6B-121" value="CREATES" style="shape=rhombus;perimeter=rhombusPerimeter;whiteSpace=wrap;html=1;align=center;fontColor=#001eff;strokeColor=#3333FF;" vertex="1" parent="1">
          <mxGeometry x="340" y="470" width="120" height="60" as="geometry" />
        </mxCell>
      </root>
    </mxGraphModel>
  </diagram>
</mxfile>
